<?xml version="1.0" standalone="no"?>
<!DOCTYPE svg PUBLIC "-//W3C//DTD SVG 20010904//EN"
 "http://www.w3.org/TR/2001/REC-SVG-20010904/DTD/svg10.dtd">
<svg version="1.0" xmlns="http://www.w3.org/2000/svg"
 width="667.000000pt" height="667.000000pt" viewBox="0 0 667.000000 667.000000"
 preserveAspectRatio="xMidYMid meet">
<metadata>
Created by potrace 1.11, written by Peter Selinger 2001-2013
</metadata>
<g transform="translate(0.000000,667.000000) scale(0.100000,-0.100000)"
fill="#000000" stroke="none">
<path d="M10 3325 l0 -3325 3325 0 3325 0 0 3325 0 3325 -3325 0 -3325 0 0
-3325z m2800 1834 c132 -36 215 -84 311 -179 91 -91 138 -168 178 -290 29 -89
51 -228 51 -327 0 -46 3 -83 8 -83 4 0 20 31 35 69 107 265 360 434 646 432
53 0 123 -7 156 -16 80 -21 195 -76 269 -129 86 -61 240 -225 309 -329 33 -48
63 -87 68 -87 6 0 36 17 67 38 153 103 299 172 452 213 124 33 324 34 430 0
93 -29 149 -57 225 -113 338 -250 459 -691 311 -1133 -119 -355 -298 -558
-950 -1078 -341 -271 -929 -709 -955 -711 -18 -1 -148 169 -287 378 -502 750
-763 1392 -809 1984 -4 51 -11 90 -15 85 -4 -4 -21 -66 -39 -136 -70 -283
-152 -497 -310 -812 -123 -242 -271 -495 -423 -724 -100 -149 -247 -350 -272
-370 -19 -16 -87 32 -526 362 -670 505 -1057 841 -1203 1044 -111 155 -194
341 -233 523 -27 125 -25 345 4 464 44 175 132 326 264 452 209 198 450 256
752 180 114 -29 287 -109 412 -191 46 -30 90 -55 97 -54 7 0 37 39 67 86 64
99 204 251 293 319 72 54 198 117 277 138 84 22 250 20 340 -5z m-1635 -2670
c68 -82 241 -247 356 -341 244 -198 508 -338 761 -404 222 -58 425 -28 928
137 l185 61 -3 59 -4 59 212 0 211 0 -18 -23 c-10 -13 -67 -82 -127 -155
l-108 -132 -39 31 -39 31 20 25 c11 14 20 29 20 34 0 4 -30 -3 -67 -17 -255
-97 -649 -209 -821 -234 -378 -56 -862 155 -1331 579 -79 72 -271 278 -271
290 1 7 71 61 79 60 3 0 29 -27 56 -60z"/>
<path d="M2535 4956 c-216 -53 -439 -276 -580 -581 -26 -55 -49 -102 -51 -104
-3 -3 -28 18 -57 46 -149 146 -418 303 -587 343 -99 23 -232 26 -305 6 -153
-41 -304 -173 -385 -340 -118 -240 -86 -580 80 -856 88 -147 203 -271 440
-476 321 -277 1114 -885 1130 -867 4 4 48 67 97 138 248 360 491 796 611 1100
229 580 276 1112 121 1370 -103 173 -325 268 -514 221z m-72 -1753 c9 -3 17
-8 17 -12 0 -3 -19 -41 -43 -84 -126 -232 -319 -352 -533 -332 -142 13 -266
76 -369 186 -50 55 -92 116 -83 124 12 11 170 85 180 84 7 0 31 -24 53 -52 82
-104 235 -152 357 -111 66 22 159 111 209 200 l33 62 81 -30 c44 -17 88 -33
98 -35z"/>
<path d="M3945 4560 c-197 -40 -335 -177 -389 -390 -24 -89 -31 -292 -17 -420
56 -488 247 -977 616 -1579 107 -174 275 -421 296 -434 19 -12 96 42 459 320
564 430 909 731 1041 906 71 95 150 251 186 372 24 81 27 106 27 255 1 147 -2
173 -22 235 -72 213 -214 369 -394 432 -66 23 -84 25 -188 21 -95 -4 -131 -10
-207 -36 -189 -64 -373 -177 -526 -321 -31 -30 -59 -52 -61 -50 -1 2 -26 53
-55 113 -74 158 -150 267 -265 381 -170 169 -327 230 -501 195z m1647 -902 l3
-103 98 -3 97 -3 0 -49 0 -50 -100 0 -100 0 0 -105 0 -105 -50 0 -50 0 0 105
0 105 -100 0 -100 0 0 50 0 49 98 3 97 3 3 103 3 102 49 0 49 0 3 -102z m-510
-779 c45 -18 87 -35 91 -39 5 -4 -4 -32 -19 -61 -74 -148 -181 -260 -304 -318
-66 -31 -86 -36 -170 -39 -109 -5 -189 12 -281 58 -68 35 -169 125 -215 195
l-34 50 92 46 93 47 51 -57 c61 -67 127 -105 211 -121 139 -27 258 43 353 208
19 34 38 62 42 62 3 0 44 -14 90 -31z"/>
</g>
</svg>
